:SAMPLES-PER-SECOND 30
:FRAME-RANGE 1-2045
:FULLY-SPECIFIED
:DEGREES
703
root  -3.94784 37.7733 -6.95569 12.3329 -34.5488 -1.27399
RightUpLeg  -34.2183 -14.4894 -1.37859
RightLeg  33.8887 -2.54311 -2.08809
RightFoot  -8.79349 -0.234479 7.84012
RightToes  -5.28216e-011 1.2921e-014 -6.02303e-014
Spine  9.80674 -2.51477 0.927362
Spine1  3.03161 -3.01828 2.77036
HEad  -3.8091 0.0614028 -1.40621
LeftShoulder1  2.33299 -6.34349 -17.822
LeftArm  1.63521 -10.8937 -47.2441
LeftForeArm  16.0392 -7.25621 -11.8978
LeftHand  -0.0462396 2.62896 1.38372
RightShoulder  1.86275 2.81258 24.3539
RightArm  -26.7305 19.665 57.3071
RightForeArm  56.7512 -1.52144 1.60205
RightHand  0.157795 -6.59639 -16.699
LeftUpLeg  -16.1673 2.08026 22.225
LeftLeg  37.7292 9.09636 7.84471
LeftFoot  0.499546 1.02443 -9.89117
LeftToes  9.43379e-011 5.24309e-011 -4.66411e-011
704
root  -4.98083 38.0313 -6.75702 11.8443 -35.7006 -0.790131
RightUpLeg  -32.3712 -13.3311 -0.970795
RightLeg  33.1507 -2.74878 -2.18021
RightFoot  -9.83108 -0.156494 6.79266
RightToes  -5.28216e-011 1.2921e-014 -6.02303e-014
Spine  10.3249 -2.20322 1.36162
Spine1  2.65077 -2.51626 2.0982
HEad  -3.16862 -0.037056 -1.53049
LeftShoulder1  2.3287 -6.16606 -18.2634
LeftArm  0.185889 -10.1279 -48.0384
LeftForeArm  18.0688 -5.63186 -12.1165
LeftHand  -0.0434555 2.82644 1.31468
RightShoulder  1.89977 2.96465 24.202
RightArm  -26.447 20.3427 57.2943
RightForeArm  55.948 -1.28015 1.735
RightHand  0.149567 -6.54169 -16.6589
LeftUpLeg  -17.6343 3.14616 20.4854
LeftLeg  40.756 7.38902 7.15805
LeftFoot  -3.3506 0.60962 -8.43088
LeftToes  9.43379e-011 5.24309e-011 -4.66411e-011
705
root  -5.89661 38.3521 -6.53505 11.5278 -36.1605 0.274506
RightUpLeg  -30.7153 -12.4348 -1.19136
RightLeg  31.7012 -3.24163 -2.40054
RightFoot  -10.282 -0.127979 6.27676
RightToes  -5.28216e-011 1.2921e-014 -6.02303e-014
Spine  10.3235 -2.20431 1.31058
Spine1  2.55855 -2.47585 1.70555
HEad  -3.05155 -0.139576 -1.68259
LeftShoulder1  2.32111 -5.97205 -18.7305
LeftArm  0.176885 -8.9586 -48.5063
LeftForeArm  17.7545 -5.54962 -12.1556
LeftHand  -0.0412514 2.82773 1.32151
RightShoulder  1.88742 2.985 23.8911
RightArm  -26.4815 21.3067 57.7984
RightForeArm  55.6865 -0.741965 1.66599
RightHand  0.149597 -6.52801 -16.8354
LeftUpLeg  -20.1158 3.28664 17.4905
LeftLeg  41.8001 5.35083 5.49761
LeftFoot  -5.91404 0.440757 -8.54144
LeftToes  9.43379e-011 5.24309e-011 -4.66411e-011
706
root  -6.74864 38.6749 -6.29618 11.3791 -36.188 1.42575
RightUpLeg  -29.1392 -12.0443 -1.41172
RightLeg  29.8875 -3.86888 -2.63833
RightFoot  -10.5407 -0.111474 5.69922
RightToes  -5.28216e-011 1.2921e-014 -6.02303e-014
Spine  9.89736 -2.17062 1.40946
Spine1  2.77988 -2.38564 1.18737
HEad  -2.88485 -1.27494 -1.72882
LeftShoulder1  2.32437 -5.85598 -19.1107
LeftArm  1.15285 -8.29314 -48.7927
LeftForeArm  17.1645 -5.86809 -12.2645
LeftHand  -0.0404925 2.72862 1.15913
RightShoulder  1.85218 2.97826 23.3304
RightArm  -26.4826 21.7663 58.2004
RightForeArm  54.8361 0.641022 1.86407
RightHand  0.131444 -6.39252 -16.9623
LeftUpLeg  -22.8836 3.76858 13.9611
LeftLeg  40.8743 4.00976 4.09973
LeftFoot  -7.02048 0.370183 -8.68752
LeftToes  9.43379e-011 5.24309e-011 -4.66411e-011
707
root  -7.57103 38.9456 -6.05917 11.344 -35.9444 2.1745
RightUpLeg  -27.4262 -11.9238 -1.30257
RightLeg  28.0408 -4.43925 -2.7918
RightFoot  -10.798 -0.0986761 5.3375
RightToes  -5.28216e-011 1.2921e-014 -6.02303e-014
Spine  9.68006 -2.02823 1.99656
Spine1  2.76879 -2.08058 0.385695
HEad  -2.22445 -3.26614 -1.53477
LeftShoulder1  2.31686 -5.75893 -19.314
LeftArm  2.83358 -7.8388 -49.0494
LeftForeArm  17.0043 -6.65698 -12.3217
LeftHand  -0.0407329 2.58066 1.13575
RightShoulder  1.84974 3.09189 22.7363
RightArm  -26.4078 21.6271 58.026
RightForeArm  53.4297 2.56631 2.34589
RightHand  0.0547897 -5.87447 -16.6093
LeftUpLeg  -25.2869 4.78483 10.6137
LeftLeg  38.2663 3.27119 3.14133
LeftFoot  -8.47825 0.279914 -9.1575
LeftToes  9.43379e-011 5.24309e-011 -4.66411e-011
708
root  -8.37493 39.1538 -5.82569 11.4324 -35.5578 2.54892
RightUpLeg  -25.761 -12.4997 -0.810313
RightLeg  26.3909 -4.39799 -2.59785
RightFoot  -11.1776 -0.0823267 4.50928
RightToes  -5.28216e-011 1.2921e-014 -6.02303e-014
Spine  9.49274 -1.82948 2.62052
Spine1  2.81482 -1.70676 -0.389281
HEad  -1.25589 -5.59523 -1.01034
LeftShoulder1  2.27992 -5.57 -19.4514
LeftArm  4.80378 -7.59474 -49.1962
LeftForeArm  16.1522 -7.70052 -12.2603
LeftHand  -0.0454111 2.60736 1.34196
RightShoulder  1.84901 3.16272 22.3888
RightArm  -26.0472 21.6386 57.5856
RightForeArm  52.6435 4.13867 2.90263
RightHand  0.0627339 -5.92433 -16.7672
LeftUpLeg  -27.1492 5.77372 7.70482
LeftLeg  34.1111 3.66035 3.02455
LeftFoot  -8.90898 0.28383 -10.8367
LeftToes  9.43379e-011 5.24309e-011 -4.66411e-011
709
root  -9.14214 39.2952 -5.60852 11.5261 -35.1684 2.89978
RightUpLeg  -24.3615 -12.5589 -0.390871
RightLeg  25.2437 -4.8705 -2.72372
RightFoot  -11.706 -0.0667029 3.99655
RightToes  -5.28216e-011 1.2921e-014 -6.02303e-014
Spine  9.40211 -1.64003 2.73768
Spine1  2.85591 -1.39333 -0.933864
HEad  -0.363339 -7.81124 -0.277985
LeftShoulder1  2.22429 -5.34832 -19.4674
LeftArm  6.68542 -7.18861 -49.1698
LeftForeArm  14.4348 -9.09639 -11.9501
LeftHand  -0.049134 2.56725 1.4889
RightShoulder  1.87018 3.28996 22.1463
RightArm  -25.6291 22.0176 57.0259
RightForeArm  52.6304 5.19143 3.33589
RightHand  0.0957636 -6.154 -16.8033
LeftUpLeg  -28.7554 5.37999 5.37254
LeftLeg  29.3253 5.36319 3.59894
LeftFoot  -7.37984 0.418149 -10.7908
LeftToes  9.43379e-011 5.24309e-011 -4.66411e-011
710
root  -9.84399 39.3544 -5.38421 11.5999 -34.7903 3.18661
RightUpLeg  -23.2669 -12.4124 -0.0571757
RightLeg  24.7239 -5.36948 -2.91581
RightFoot  -12.4662 -0.0453733 3.99069
RightToes  -5.28216e-011 1.2921e-014 -6.02303e-014
Spine  9.38924 -1.50392 2.65559
Spine1  3.04092 -1.18729 -1.25152
HEad  -0.0323822 -9.60395 0.593334
LeftShoulder1  2.17695 -5.21677 -19.2963
LeftArm  8.33255 -6.60876 -49.1489
LeftForeArm  12.2857 -10.6654 -11.4201
LeftHand  -0.0530873 2.34202 1.57698
RightShoulder  1.8754 3.35758 21.9244
RightArm  -25.4743 22.5262 56.7029
RightForeArm  52.6674 6.15676 3.58444
RightHand  0.104491 -6.2065 -16.951
LeftUpLeg  -30.2326 3.86451 3.8637
LeftLeg  24.7427 6.78401 3.73891
LeftFoot  -5.96109 0.528013 -10.4573
LeftToes  9.43379e-011 5.24309e-011 -4.66411e-011
711
root  -10.5031 39.3532 -5.13424 11.9279 -34.8955 3.02667
RightUpLeg  -22.4183 -12.3857 0.599784
RightLeg  24.523 -5.2175 -2.81655
RightFoot  -13.3084 -0.0292784 3.54929
RightToes  -5.28216e-011 1.2921e-014 -6.02303e-014
Spine  9.3685 -1.31129 2.92348
Spine1  3.22547 -0.855297 -1.77876
HEad  0.0583903 -10.9289 1.53282
LeftShoulder1  2.12088 -5.01165 -19.2482
LeftArm  9.45931 -6.34206 -48.7654
LeftForeArm  10.5927 -11.6227 -11.0565
LeftHand  -0.0567153 2.38307 1.65047
RightShoulder  1.91324 3.50325 21.8787
RightArm  -25.4312 23.1455 56.4649
RightForeArm  52.2315 6.82728 3.70601
RightHand  0.0717972 -5.97402 -17.0865
LeftUpLeg  -31.4344 2.90676 3.17122
LeftLeg  20.2529 6.72631 3.0706
LeftFoot  -4.60509 0.760008 -12.408
LeftToes  9.43379e-011 5.24309e-011 -4.66411e-011
